{
  "accessors": [
    {
      "bufferView": 2,
      "componentType": 5126,
      "count": 5000,
      "max": [
        0.7929859757423401,
        0.3039349913597107,
        0.8671979904174805
      ],
      "min": [
        -0.7929859757423401,
        -0.5599830150604248,
        -0.8508819937705994
      ],
      "type": "VEC3"
    },
    {
      "bufferView": 2,
      "byteOffset": 60000,
      "componentType": 5126,
      "count": 5000,
      "max": [
        0.9995813369750977,
        0.9999629855155945,
        1.0
      ],
      "min": [
        -0.9995813369750977,
        -0.9999569058418274,
        -1.0
      ],
      "type": "VEC3"
    },
    {
      "bufferView": 3,
      "componentType": 5126,
      "count": 5000,
      "max": [
        0.9999998211860657,
        0.9999902844429016,
        1.0,
        1.0
      ],
      "min": [
        -0.999981164932251,
        -0.9998634457588196,
        -1.0,
        1.0
      ],
      "type": "VEC4"
    },
    {
      "bufferView": 1,
      "componentType": 5126,
      "count": 5000,
      "max": [
        0.9492549896240234,
        0.9963570237159729
      ],
      "min": [
        0.013992900028824806,
        0.004414029885083437
      ],
      "type": "VEC2"
    },
    {
      "bufferView": 0,
      "componentType": 5125,
      "count": 28224,
      "type": "SCALAR"
    },
    {
      "bufferView": 2,
      "byteOffset": 120000,
      "componentType": 5126,
      "count": 2538,
      "max": [
        0.6625919938087463,
        0.5599830150604248,
        1.0
      ],
      "min": [
        -0.6660799980163574,
        0.028519799932837486,
        -1.0
      ],
      "type": "VEC3"
    },
    {
      "bufferView": 2,
      "byteOffset": 150456,
      "componentType": 5126,
      "count": 2538,
      "max": [
        1.0,
        1.0,
        1.0
      ],
      "min": [
        -1.0,
        -1.0,
        -1.0
      ],
      "type": "VEC3"
    },
    {
      "bufferView": 3,
      "byteOffset": 80000,
      "componentType": 5126,
      "count": 2538,
      "max": [
        0.9937812685966492,
        0.9999977946281433,
        0.9999998211860657,
        1.0
      ],
      "min": [
        -0.9858853220939636,
        -0.9999428987503052,
        -1.0,
        -1.0
      ],
      "type": "VEC4"
    },
    {
      "bufferView": 1,
      "byteOffset": 40000,
      "componentType": 5126,
      "count": 2538,
      "max": [
        0.9955090284347534,
        0.9913309812545776
      ],
      "min": [
        0.009501700289547443,
        0.008949579671025276
      ],
      "type": "VEC2"
    },
    {
      "bufferView": 0,
      "byteOffset": 112896,
      "componentType": 5125,
      "count": 14640,
      "type": "SCALAR"
    }
  ],
  "asset": {
    "extras": {
      "author": "Alex Martire (https://sketchfab.com/alexmartire)",
      "license": "CC-BY-NC-4.0 (http://creativecommons.org/licenses/by-nc/4.0/)",
      "source": "https://sketchfab.com/3d-models/integrated-circuit-ic-7a371e15688741bf846c6c7b68000048",
      "title": "Integrated Circuit (IC)"
    },
    "generator": "Sketchfab-12.66.0",
    "version": "2.0"
  },
  "bufferViews": [
    {
      "buffer": 0,
      "byteLength": 171456,
      "name": "floatBufferViews",
      "target": 34963
    },
    {
      "buffer": 0,
      "byteLength": 60304,
      "byteOffset": 171456,
      "byteStride": 8,
      "name": "floatBufferViews",
      "target": 34962
    },
    {
      "buffer": 0,
      "byteLength": 180912,
      "byteOffset": 231760,
      "byteStride": 12,
      "name": "floatBufferViews",
      "target": 34962
    },
    {
      "buffer": 0,
      "byteLength": 120608,
      "byteOffset": 412672,
      "byteStride": 16,
      "name": "floatBufferViews",
      "target": 34962
    }
  ],
  "buffers": [
    {
      "byteLength": 533280,
      "uri": "scene.bin"
    }
  ],
  "images": [
    {
      "uri": "textures/Plastico_baseColor.jpeg"
    },
    {
      "uri": "textures/Plastico_metallicRoughness.png"
    },
    {
      "uri": "textures/Plastico_normal.png"
    },
    {
      "uri": "textures/Metal_baseColor.jpeg"
    },
    {
      "uri": "textures/Metal_metallicRoughness.png"
    },
    {
      "uri": "textures/Metal_normal.png"
    }
  ],
  "materials": [
    {
      "doubleSided": true,
      "name": "Plastico",
      "normalTexture": {
        "index": 2
      },
      "occlusionTexture": {
        "index": 1
      },
      "pbrMetallicRoughness": {
        "baseColorTexture": {
          "index": 0
        },
        "metallicRoughnessTexture": {
          "index": 1
        }
      }
    },
    {
      "doubleSided": true,
      "name": "Metal",
      "normalTexture": {
        "index": 5
      },
      "occlusionTexture": {
        "index": 4
      },
      "pbrMetallicRoughness": {
        "baseColorTexture": {
          "index": 3
        },
        "metallicRoughnessTexture": {
          "index": 4
        }
      }
    }
  ],
  "meshes": [
    {
      "name": "defaultMaterial",
      "primitives": [
        {
          "attributes": {
            "NORMAL": 1,
            "POSITION": 0,
            "TANGENT": 2,
            "TEXCOORD_0": 3
          },
          "indices": 4,
          "material": 1,
          "mode": 4
        }
      ]
    },
    {
      "name": "defaultMaterial",
      "primitives": [
        {
          "attributes": {
            "NORMAL": 6,
            "POSITION": 5,
            "TANGENT": 7,
            "TEXCOORD_0": 8
          },
          "indices": 9,
          "material": 0,
          "mode": 4
        }
      ]
    }
  ],
  "nodes": [
    {
      "children": [
        1
      ],
      "matrix": [
        1.0,
        0.0,
        0.0,
        0.0,
        0.0,
        2.220446049250313e-16,
        -1.0,
        0.0,
        0.0,
        1.0,
        2.220446049250313e-16,
        0.0,
        0.0,
        0.0,
        0.0,
        1.0
      ],
      "name": "Sketchfab_model"
    },
    {
      "children": [
        2,
        4
      ],
      "matrix": [
        1.0,
        0.0,
        0.0,
        0.0,
        0.0,
        -4.371139006309477e-08,
        0.999999999999999,
        0.0,
        0.0,
        -0.999999999999999,
        -4.371139006309477e-08,
        0.0,
        0.0,
        0.0,
        0.0,
        1.0
      ],
      "name": "Collada visual scene group"
    },
    {
      "children": [
        3
      ],
      "name": "terminais"
    },
    {
      "mesh": 0,
      "name": "defaultMaterial"
    },
    {
      "children": [
        5
      ],
      "name": "Corpo"
    },
    {
      "mesh": 1,
      "name": "defaultMaterial"
    }
  ],
  "samplers": [
    {
      "magFilter": 9729,
      "minFilter": 9987,
      "wrapS": 10497,
      "wrapT": 10497
    }
  ],
  "scene": 0,
  "scenes": [
    {
      "name": "Sketchfab_Scene",
      "nodes": [
        0
      ]
    }
  ],
  "textures": [
    {
      "sampler": 0,
      "source": 0
    },
    {
      "sampler": 0,
      "source": 1
    },
    {
      "sampler": 0,
      "source": 2
    },
    {
      "sampler": 0,
      "source": 3
    },
    {
      "sampler": 0,
      "source": 4
    },
    {
      "sampler": 0,
      "source": 5
    }
  ]
}
