{
	"asset":{
		"generator":"Khronos glTF Blender I/O v3.5.30",
		"version":"2.0"
	},
	"scene":0,
	"scenes":[
		{
			"name":"Scene",
			"nodes":[
				5
			]
		}
	],
	"nodes":[
		{
			"mesh":0,
			"name":"defaultMaterial.001"
		},
		{
			"children":[
				0
			],
			"name":"Corpo"
		},
		{
			"mesh":1,
			"name":"defaultMaterial"
		},
		{
			"children":[
				2
			],
			"name":"terminais"
		},
		{
			"children":[
				1,
				3
			],
			"name":"Collada visual scene group",
			"rotation":[
				0.70710688829422,
				0,
				0,
				0.7071066498756409
			]
		},
		{
			"children":[
				4
			],
			"name":"Sketchfab_model",
			"rotation":[
				-0.70710688829422,
				0,
				0,
				0.7071066498756409
			],
			"scale":[
				28.13530158996582,
				28.13530731201172,
				28.13530731201172
			]
		}
	],
	"materials":[
		{
			"doubleSided":true,
			"name":"Plastico",
			"normalTexture":{
				"index":0
			},
			"occlusionTexture":{
				"index":1
			},
			"pbrMetallicRoughness":{
				"baseColorTexture":{
					"index":2
				},
				"metallicRoughnessTexture":{
					"index":1
				}
			}
		},
		{
			"doubleSided":true,
			"name":"Metal",
			"normalTexture":{
				"index":3
			},
			"occlusionTexture":{
				"index":4
			},
			"pbrMetallicRoughness":{
				"baseColorTexture":{
					"index":5
				},
				"metallicRoughnessTexture":{
					"index":4
				}
			}
		}
	],
	"meshes":[
		{
			"name":"defaultMaterial.001",
			"primitives":[
				{
					"attributes":{
						"POSITION":0,
						"TEXCOORD_0":1,
						"NORMAL":2
					},
					"indices":3,
					"material":0
				}
			]
		},
		{
			"name":"defaultMaterial",
			"primitives":[
				{
					"attributes":{
						"POSITION":4,
						"TEXCOORD_0":5,
						"NORMAL":6
					},
					"indices":7,
					"material":1
				}
			]
		}
	],
	"textures":[
		{
			"sampler":0,
			"source":0
		},
		{
			"sampler":0,
			"source":1
		},
		{
			"sampler":0,
			"source":2
		},
		{
			"sampler":0,
			"source":3
		},
		{
			"sampler":0,
			"source":4
		},
		{
			"sampler":0,
			"source":5
		}
	],
	"images":[
		{
			"mimeType":"image/png",
			"name":"Plastico_normal",
			"uri":"Plastico_normal.png"
		},
		{
			"mimeType":"image/png",
			"name":"Plastico_metallicRoughness",
			"uri":"Plastico_metallicRoughness.png"
		},
		{
			"mimeType":"image/jpeg",
			"name":"Plastico_baseColor",
			"uri":"Plastico_baseColor.jpg"
		},
		{
			"mimeType":"image/png",
			"name":"Metal_normal",
			"uri":"Metal_normal.png"
		},
		{
			"mimeType":"image/png",
			"name":"Metal_metallicRoughness",
			"uri":"Metal_metallicRoughness.png"
		},
		{
			"mimeType":"image/jpeg",
			"name":"Metal_baseColor",
			"uri":"Metal_baseColor.jpg"
		}
	],
	"accessors":[
		{
			"bufferView":0,
			"componentType":5126,
			"count":2555,
			"max":[
				0.6625919938087463,
				0.5599830150604248,
				1
			],
			"min":[
				-0.6660799980163574,
				0.028519799932837486,
				-1
			],
			"type":"VEC3"
		},
		{
			"bufferView":1,
			"componentType":5126,
			"count":2555,
			"type":"VEC2"
		},
		{
			"bufferView":2,
			"componentType":5126,
			"count":2555,
			"type":"VEC3"
		},
		{
			"bufferView":3,
			"componentType":5123,
			"count":14640,
			"type":"SCALAR"
		},
		{
			"bufferView":4,
			"componentType":5126,
			"count":5355,
			"max":[
				0.7929859757423401,
				0.3039349913597107,
				0.8671979904174805
			],
			"min":[
				-0.7929859757423401,
				-0.5599830150604248,
				-0.8508819937705994
			],
			"type":"VEC3"
		},
		{
			"bufferView":5,
			"componentType":5126,
			"count":5355,
			"type":"VEC2"
		},
		{
			"bufferView":6,
			"componentType":5126,
			"count":5355,
			"type":"VEC3"
		},
		{
			"bufferView":7,
			"componentType":5123,
			"count":28224,
			"type":"SCALAR"
		}
	],
	"bufferViews":[
		{
			"buffer":0,
			"byteLength":30660,
			"byteOffset":0,
			"target":34962
		},
		{
			"buffer":0,
			"byteLength":20440,
			"byteOffset":30660,
			"target":34962
		},
		{
			"buffer":0,
			"byteLength":30660,
			"byteOffset":51100,
			"target":34962
		},
		{
			"buffer":0,
			"byteLength":29280,
			"byteOffset":81760,
			"target":34963
		},
		{
			"buffer":0,
			"byteLength":64260,
			"byteOffset":111040,
			"target":34962
		},
		{
			"buffer":0,
			"byteLength":42840,
			"byteOffset":175300,
			"target":34962
		},
		{
			"buffer":0,
			"byteLength":64260,
			"byteOffset":218140,
			"target":34962
		},
		{
			"buffer":0,
			"byteLength":56448,
			"byteOffset":282400,
			"target":34963
		}
	],
	"samplers":[
		{
			"magFilter":9729,
			"minFilter":9987
		}
	],
	"buffers":[
		{
			"byteLength":338848,
			"uri":"555.bin"
		}
	]
}
