{
	"asset":{
		"generator":"Khronos glTF Blender I/O v3.5.30",
		"version":"2.0"
	},
	"scene":0,
	"scenes":[
		{
			"name":"Scene",
			"nodes":[
				9
			]
		}
	],
	"nodes":[
		{
			"mesh":0,
			"name":"Resistor.000_0"
		},
		{
			"mesh":1,
			"name":"Resistor.000_1"
		},
		{
			"mesh":2,
			"name":"Resistor.000_2"
		},
		{
			"mesh":3,
			"name":"Resistor.000_3"
		},
		{
			"mesh":4,
			"name":"Resistor.000_4"
		},
		{
			"mesh":5,
			"name":"Resistor.000_5"
		},
		{
			"mesh":6,
			"name":"Resistor.000_6"
		},
		{
			"children":[
				0,
				1,
				2,
				3,
				4,
				5,
				6
			],
			"name":"Resistor.000",
			"rotation":[
				0,
				0,
				-0.7046844363212585,
				0.7095208764076233
			],
			"scale":[
				1.0000033378601074,
				1.0000033378601074,
				1
			]
		},
		{
			"children":[
				7
			],
			"name":"Root"
		},
		{
			"children":[
				8
			],
			"name":"Sketchfab_model",
			"rotation":[
				-1,
				0,
				0,
				2.220445784552517e-16
			],
			"scale":[
				10.470283508300781,
				10.470283508300781,
				10.470283508300781
			],
			"translation":[
				-0.45502567291259766,
				24.20477867126465,
				-0.02758406102657318
			]
		}
	],
	"materials":[
		{
			"doubleSided":true,
			"name":"IronMaterial.005",
			"pbrMetallicRoughness":{
				"baseColorFactor":[
					0.800000011920929,
					0.800000011920929,
					0.800000011920929,
					1
				],
				"roughnessFactor":0.39462652802467346
			}
		},
		{
			"doubleSided":true,
			"name":"ResistorBaseMaterial.003",
			"pbrMetallicRoughness":{
				"baseColorFactor":[
					0.911389946937561,
					0.6053674221038818,
					0.3035425841808319,
					1
				],
				"metallicFactor":0,
				"roughnessFactor":0.6000000238418579
			}
		},
		{
			"doubleSided":true,
			"name":"ResistorColorOneMaterial.003",
			"pbrMetallicRoughness":{
				"baseColorFactor":[
					0.3277781009674072,
					0.10224173218011856,
					0.04518621414899826,
					1
				],
				"metallicFactor":0,
				"roughnessFactor":0.6000000238418579
			}
		},
		{
			"doubleSided":true,
			"name":"ResistorColorTwoMaterial.003",
			"pbrMetallicRoughness":{
				"baseColorFactor":[
					0.04970657452940941,
					0.038204375654459,
					0.02624122053384781,
					1
				],
				"metallicFactor":0,
				"roughnessFactor":0.6000000238418579
			}
		},
		{
			"doubleSided":true,
			"name":"ResistorColorThreeMaterial.003",
			"pbrMetallicRoughness":{
				"baseColorFactor":[
					1,
					0.20507875084877014,
					0.01032982487231493,
					1
				],
				"metallicFactor":0,
				"roughnessFactor":0.6000000238418579
			}
		},
		{
			"doubleSided":true,
			"name":"ResistorColorFourMaterial.003",
			"pbrMetallicRoughness":{
				"baseColorFactor":[
					0.7011020183563232,
					0.3762621283531189,
					0.014443841762840748,
					1
				],
				"metallicFactor":0,
				"roughnessFactor":0.6000000238418579
			}
		},
		{
			"doubleSided":true,
			"name":"IronMaterial.002",
			"pbrMetallicRoughness":{
				"baseColorFactor":[
					0.800000011920929,
					0.800000011920929,
					0.800000011920929,
					1
				],
				"roughnessFactor":0.4000000059604645
			}
		}
	],
	"meshes":[
		{
			"name":"Resistor.000_0",
			"primitives":[
				{
					"attributes":{
						"POSITION":0,
						"NORMAL":1
					},
					"indices":2,
					"material":0
				}
			]
		},
		{
			"name":"Resistor.000_1",
			"primitives":[
				{
					"attributes":{
						"POSITION":3,
						"NORMAL":4
					},
					"indices":5,
					"material":1
				}
			]
		},
		{
			"name":"Resistor.000_2",
			"primitives":[
				{
					"attributes":{
						"POSITION":6,
						"NORMAL":7
					},
					"indices":8,
					"material":2
				}
			]
		},
		{
			"name":"Resistor.000_3",
			"primitives":[
				{
					"attributes":{
						"POSITION":9,
						"NORMAL":10
					},
					"indices":11,
					"material":3
				}
			]
		},
		{
			"name":"Resistor.000_4",
			"primitives":[
				{
					"attributes":{
						"POSITION":12,
						"NORMAL":13
					},
					"indices":14,
					"material":4
				}
			]
		},
		{
			"name":"Resistor.000_5",
			"primitives":[
				{
					"attributes":{
						"POSITION":15,
						"NORMAL":16
					},
					"indices":11,
					"material":5
				}
			]
		},
		{
			"name":"Resistor.000_6",
			"primitives":[
				{
					"attributes":{
						"POSITION":17,
						"NORMAL":18
					},
					"indices":19,
					"material":6
				}
			]
		}
	],
	"accessors":[
		{
			"bufferView":0,
			"componentType":5126,
			"count":246,
			"max":[
				0.09414000064134598,
				1.3853399753570557,
				0.09251999855041504
			],
			"min":[
				-2.274199962615967,
				0.9994999766349792,
				-0.09251999855041504
			],
			"type":"VEC3"
		},
		{
			"bufferView":1,
			"componentType":5126,
			"count":246,
			"type":"VEC3"
		},
		{
			"bufferView":2,
			"componentType":5123,
			"count":330,
			"type":"SCALAR"
		},
		{
			"bufferView":3,
			"componentType":5126,
			"count":1026,
			"max":[
				0.3013800084590912,
				1.0019400119781494,
				0.30000001192092896
			],
			"min":[
				-0.3075299859046936,
				-1.024440050125122,
				-0.30000001192092896
			],
			"type":"VEC3"
		},
		{
			"bufferView":4,
			"componentType":5126,
			"count":1026,
			"type":"VEC3"
		},
		{
			"bufferView":5,
			"componentType":5123,
			"count":1248,
			"type":"SCALAR"
		},
		{
			"bufferView":6,
			"componentType":5126,
			"count":76,
			"max":[
				0.3006500005722046,
				0.5369200110435486,
				0.30000001192092896
			],
			"min":[
				-0.3000600039958954,
				0.4261600077152252,
				-0.30000001192092896
			],
			"type":"VEC3"
		},
		{
			"bufferView":7,
			"componentType":5126,
			"count":76,
			"type":"VEC3"
		},
		{
			"bufferView":8,
			"componentType":5123,
			"count":96,
			"type":"SCALAR"
		},
		{
			"bufferView":9,
			"componentType":5126,
			"count":64,
			"max":[
				0.23875999450683594,
				0.25874000787734985,
				0.23999999463558197
			],
			"min":[
				-0.2423200011253357,
				0.09598000347614288,
				-0.23999999463558197
			],
			"type":"VEC3"
		},
		{
			"bufferView":10,
			"componentType":5126,
			"count":64,
			"type":"VEC3"
		},
		{
			"bufferView":11,
			"componentType":5123,
			"count":96,
			"type":"SCALAR"
		},
		{
			"bufferView":12,
			"componentType":5126,
			"count":72,
			"max":[
				0.23631000518798828,
				-0.09977000206708908,
				0.23999999463558197
			],
			"min":[
				-0.2442999929189682,
				-0.1926800012588501,
				-0.23999999463558197
			],
			"type":"VEC3"
		},
		{
			"bufferView":13,
			"componentType":5126,
			"count":72,
			"type":"VEC3"
		},
		{
			"bufferView":14,
			"componentType":5123,
			"count":96,
			"type":"SCALAR"
		},
		{
			"bufferView":15,
			"componentType":5126,
			"count":64,
			"max":[
				0.29319998621940613,
				-0.5530499815940857,
				0.30000001192092896
			],
			"min":[
				-0.3075299859046936,
				-0.6671500205993652,
				-0.30000001192092896
			],
			"type":"VEC3"
		},
		{
			"bufferView":16,
			"componentType":5126,
			"count":64,
			"type":"VEC3"
		},
		{
			"bufferView":17,
			"componentType":5126,
			"count":232,
			"max":[
				0.08031000196933746,
				-1.024440050125122,
				0.09251999855041504
			],
			"min":[
				-2.2906301021575928,
				-1.3779000043869019,
				-0.09251999855041504
			],
			"type":"VEC3"
		},
		{
			"bufferView":18,
			"componentType":5126,
			"count":232,
			"type":"VEC3"
		},
		{
			"bufferView":19,
			"componentType":5123,
			"count":330,
			"type":"SCALAR"
		}
	],
	"bufferViews":[
		{
			"buffer":0,
			"byteLength":2952,
			"byteOffset":0,
			"target":34962
		},
		{
			"buffer":0,
			"byteLength":2952,
			"byteOffset":2952,
			"target":34962
		},
		{
			"buffer":0,
			"byteLength":660,
			"byteOffset":5904,
			"target":34963
		},
		{
			"buffer":0,
			"byteLength":12312,
			"byteOffset":6564,
			"target":34962
		},
		{
			"buffer":0,
			"byteLength":12312,
			"byteOffset":18876,
			"target":34962
		},
		{
			"buffer":0,
			"byteLength":2496,
			"byteOffset":31188,
			"target":34963
		},
		{
			"buffer":0,
			"byteLength":912,
			"byteOffset":33684,
			"target":34962
		},
		{
			"buffer":0,
			"byteLength":912,
			"byteOffset":34596,
			"target":34962
		},
		{
			"buffer":0,
			"byteLength":192,
			"byteOffset":35508,
			"target":34963
		},
		{
			"buffer":0,
			"byteLength":768,
			"byteOffset":35700,
			"target":34962
		},
		{
			"buffer":0,
			"byteLength":768,
			"byteOffset":36468,
			"target":34962
		},
		{
			"buffer":0,
			"byteLength":192,
			"byteOffset":37236,
			"target":34963
		},
		{
			"buffer":0,
			"byteLength":864,
			"byteOffset":37428,
			"target":34962
		},
		{
			"buffer":0,
			"byteLength":864,
			"byteOffset":38292,
			"target":34962
		},
		{
			"buffer":0,
			"byteLength":192,
			"byteOffset":39156,
			"target":34963
		},
		{
			"buffer":0,
			"byteLength":768,
			"byteOffset":39348,
			"target":34962
		},
		{
			"buffer":0,
			"byteLength":768,
			"byteOffset":40116,
			"target":34962
		},
		{
			"buffer":0,
			"byteLength":2784,
			"byteOffset":40884,
			"target":34962
		},
		{
			"buffer":0,
			"byteLength":2784,
			"byteOffset":43668,
			"target":34962
		},
		{
			"buffer":0,
			"byteLength":660,
			"byteOffset":46452,
			"target":34963
		}
	],
	"buffers":[
		{
			"byteLength":47112,
			"uri":"resistor.bin"
		}
	]
}
